<svg id="Layer_1" data-name="Layer 1" xmlns="http://www.w3.org/2000/svg" viewBox="0 0 49.77 46.45"><defs><style>.cls-1{fill:#fff;}</style></defs><title>arrowdown</title><path class="cls-1" d="M28.16,24.07l0.1-.7a1.07,1.07,0,0,1,1.7-.8l7.3,4.6c0.8,0.5.7,1.4-.2,1.6l-8.3,2.4a1.06,1.06,0,0,1-1.4-1.2l0.1-.7a0.4,0.4,0,0,0-.4-0.5l-7.6-1.1a1.38,1.38,0,0,1-1.2-1.6l0.2-1.4a1.38,1.38,0,0,1,1.6-1.2l7.6,1.1A0.63,0.63,0,0,0,28.16,24.07Zm1.2-.7c-0.2-.1-0.2-0.1-0.2.1l-0.1.8a1.38,1.38,0,0,1-1.6,1.2l-7.6-1.1a0.4,0.4,0,0,0-.5.4l-0.3,1.4a0.4,0.4,0,0,0,.4.5l7.6,1.1a1.38,1.38,0,0,1,1.2,1.6l-0.1.7c0,0.2,0,.2.2,0.2l8.2-2.4Z"/></svg>