<svg id="Layer_1" data-name="Layer 1" xmlns="http://www.w3.org/2000/svg" viewBox="0 0 215 132.24"><defs><style>.cls-1{fill:#fff;}</style></defs><title>gun-tracing</title><rect x="0.43" y="0.03" width="214.6" height="132.24"/><path class="cls-1" d="M89.93,62.66H77.26a0.6,0.6,0,1,1,0-1.1H89.93A0.6,0.6,0,1,1,89.93,62.66Zm0.83,3.46a0.74,0.74,0,0,0-.83-0.55H77.26a0.6,0.6,0,1,0,0,1.1H89.93A0.74,0.74,0,0,0,90.76,66.12Zm-4.91-2A0.73,0.73,0,0,0,85,63.57H67a0.6,0.6,0,1,0,0,1.1H85A0.74,0.74,0,0,0,85.85,64.12Z"/><path class="cls-1" d="M-3.6,99l-17-.1c-1.6-14.2,14.2-23.3.5-26.4l-0.3-1.2c3.8-2.4,6.2-4.8,4.4-9l1.1-1,2,0.8,3.3-1.3,1.5-1.5,1.4,1.5H7.7L8,61.27l30,0.1a1.92,1.92,0,0,1,2-1.9,2,2,0,0,1,2,1.9h2.3v5.1H41.9v5.2H37.4L37.2,73h-16c-3.7,1.1-4.7,4.3-4.4,8.4-3.5,2.2-8.4,2.3-14.1,1.4C-1.6,81.47-2.1,91.67-3.6,99Zm14.9-17.1c2.4-.4,4.4-1.8,4.4-4h0a4.24,4.24,0,0,0-4.4-4H8a7,7,0,0,0,3.1,7.3c-2,0-5.4-2.2-5.3-7.3h-1a4.24,4.24,0,0,0-4.4,4h0c0,2.2,2.5,3.5,4.4,4A15.8,15.8,0,0,0,11.3,81.87Z"/><path class="cls-1" d="M94.6,67h17.66c4.08,0,7.9-1.17,7.9-2.62V64.12c0-1.45-3.82-2.62-7.9-2.62H94.6V62H93.28V61.5H91.83V67h1.45V66.44H94.6V67Zm24-2.84v0.22c0,0.76-2.6,1.67-5.92,1.74v-1a11.72,11.72,0,0,0,5.55-1.51A0.73,0.73,0,0,1,118.58,64.12Zm-7.89,2H94.94V65.13h15.74v0.95Zm-18.58.07V65.1h0.66v1.05H92.11Z"/></svg>