<?xml version="1.0" encoding="utf-8"?>
<!-- Generator: Adobe Illustrator 19.2.1, SVG Export Plug-In . SVG Version: 6.00 Build 0)  -->
<svg version="1.1" id="Layer_1" xmlns="http://www.w3.org/2000/svg" xmlns:xlink="http://www.w3.org/1999/xlink" x="0px" y="0px"
	 viewBox="0 0 215 132.2" style="enable-background:new 0 0 215 132.2;" xml:space="preserve">
<style type="text/css">
	.st0{fill:#FFFFFF;}
</style>
<rect x="-0.2" width="215.3" height="132.2"/>
<g>
	<path class="st0" d="M19.3,120.9l-9.4,1.7c-2.3-7.7,5.4-14.3-2.5-14.6l-0.3-0.6c1.8-1.7,2.9-3.3,1.5-5.4l0.5-0.7l1.2,0.2l1.7-1.1
		l0.7-1l0.9,0.7l7.9-1.5l0.2,0.3l16.6-3c-0.1-0.6,0.3-1.1,0.9-1.2c0,0,0,0,0,0c0.6-0.1,1.2,0.3,1.3,0.8l1.3-0.2l0.5,2.8l-1.3,0.2
		l0.5,2.9l-2.5,0.5l0,0.7l-8.8,1.6c-1.9,1-2.2,2.9-1.6,5.1c-1.7,1.6-4.4,2.1-7.6,2.2C18.6,111.1,19.4,116.8,19.3,120.9z M25.8,110
		c1.3-0.5,2.2-1.4,2-2.7l0,0c-0.3-1.3-1.6-2-2.8-1.8l-1.8,0.3c0,1.6,1,3.1,2.5,3.7c-1.1,0.2-3.2-0.7-3.7-3.5l-0.6,0.1
		c-1.3,0.2-2.2,1.4-2,2.7l0,0c0.2,1.2,1.7,1.7,2.8,1.8C23.4,110.7,24.6,110.4,25.8,110L25.8,110z"/>
	<path class="st0" d="M186.7,35.9l-9.4,1.7c-2.3-7.7,5.4-14.3-2.5-14.6l-0.3-0.6c1.8-1.7,2.9-3.3,1.5-5.4l0.5-0.7l1.2,0.2l1.7-1.1
		l0.7-1l0.9,0.7l7.9-1.5l0.2,0.3l16.6-3c-0.1-0.6,0.3-1.1,0.9-1.2c0,0,0,0,0,0c0.6-0.1,1.2,0.3,1.3,0.8l1.3-0.2l0.5,2.8l-1.3,0.2
		l0.5,2.9l-2.5,0.5l0,0.7l-8.8,1.6c-1.9,1-2.2,2.9-1.6,5.1c-1.7,1.6-4.4,2.1-7.6,2.2C186.1,26.1,186.8,31.8,186.7,35.9z M193.2,25
		c1.3-0.5,2.2-1.4,2-2.7l0,0c-0.3-1.3-1.6-2-2.8-1.8l-1.8,0.3c0,1.6,1,3.1,2.5,3.7c-1.1,0.2-3.2-0.7-3.7-3.5l-0.6,0.1
		c-1.3,0.2-2.2,1.4-2,2.7l0,0c0.2,1.2,1.7,1.7,2.8,1.8C190.9,25.7,192.1,25.5,193.2,25L193.2,25z"/>
	<g>
		<g>
			<path class="st0" d="M50.8,81.7l-0.4-0.6c-0.5-0.7-0.2-1.5,0.6-1.7l8.4-1.9c0.9-0.2,1.5,0.5,1,1.3l-4.1,7.5
				c-0.4,0.8-1.3,0.8-1.8,0.1L54,85.9c-0.2-0.2-0.5-0.3-0.7-0.1l-6.1,4.6c-0.6,0.5-1.5,0.3-2-0.3L44.3,89c-0.5-0.6-0.4-1.5,0.3-2
				l6.1-4.6C50.9,82.2,51,81.9,50.8,81.7z M51.2,80.3c-0.2,0-0.2,0.1-0.1,0.2l0.4,0.6c0.5,0.6,0.4,1.5-0.3,2l-6.1,4.6
				c-0.2,0.2-0.3,0.5-0.1,0.7l0.9,1.1c0.2,0.2,0.5,0.3,0.7,0.1l6.1-4.6c0.6-0.5,1.5-0.3,2,0.3l0.4,0.6c0.1,0.1,0.1,0.1,0.2,0
				l4.1-7.4L51.2,80.3z"/>
		</g>
	</g>
	<g>
		<g>
			<path class="st0" d="M74.1,78.6l0.1-0.7c0.1-0.9,0.9-1.2,1.7-0.8l7.3,4.6c0.8,0.5,0.7,1.4-0.2,1.6l-8.3,2.4
				c-0.8,0.2-1.5-0.3-1.4-1.2l0.1-0.7c0-0.3-0.1-0.5-0.4-0.5l-7.6-1.1c-0.8-0.1-1.3-0.8-1.2-1.6l0.2-1.4c0.1-0.8,0.8-1.3,1.6-1.2
				l7.6,1.1C73.8,79.1,74,78.9,74.1,78.6z M75.3,77.9c-0.2-0.1-0.2-0.1-0.2,0.1L75,78.8c-0.1,0.8-0.8,1.3-1.6,1.2l-7.6-1.1
				c-0.3,0-0.5,0.1-0.5,0.4L65,80.7c0,0.3,0.1,0.5,0.4,0.5l7.6,1.1c0.8,0.1,1.3,0.8,1.2,1.6l-0.1,0.7c0,0.2,0,0.2,0.2,0.2l8.2-2.4
				L75.3,77.9z"/>
		</g>
	</g>
	<g>
		<g>
			<g>
				<path class="st0" d="M92.8,73.1l-0.4-0.6c-0.5-0.7-0.2-1.5,0.6-1.7l8.1-1.8c0.9-0.2,1.4,0.5,1,1.3l-4,7.3
					c-0.4,0.7-1.3,0.8-1.8,0.1l-0.4-0.6c-0.2-0.2-0.4-0.2-0.6-0.1l-5.9,4.5c-0.6,0.5-1.5,0.3-1.9-0.3l-0.8-1.1
					c-0.5-0.6-0.3-1.5,0.3-2l5.9-4.5C92.9,73.6,92.9,73.3,92.8,73.1z M93.2,71.8c-0.2,0-0.2,0.1-0.1,0.2l0.4,0.6
					c0.5,0.6,0.3,1.5-0.3,1.9L87.3,79c-0.2,0.2-0.2,0.4-0.1,0.7l0.8,1.1c0.2,0.2,0.4,0.2,0.6,0.1l5.9-4.5c0.6-0.5,1.5-0.3,1.9,0.3
					l0.4,0.6c0.1,0.1,0.1,0.1,0.2,0l4-7.2L93.2,71.8z"/>
			</g>
		</g>
		<g>
			<g>
				<path class="st0" d="M115.3,70.1l0.1-0.7c0.1-0.8,0.9-1.2,1.6-0.8l7,4.4c0.8,0.5,0.7,1.3-0.2,1.6l-8,2.3
					c-0.8,0.2-1.5-0.3-1.4-1.2l0.1-0.7c0-0.3-0.1-0.5-0.4-0.5l-7.4-1c-0.8-0.1-1.3-0.8-1.2-1.6l0.2-1.4c0.1-0.8,0.8-1.3,1.6-1.2
					l7.4,1C115,70.6,115.2,70.4,115.3,70.1z M116.5,69.5c-0.2-0.1-0.2-0.1-0.2,0.1l-0.1,0.7c-0.1,0.8-0.8,1.3-1.6,1.2l-7.4-1
					c-0.3,0-0.5,0.1-0.5,0.4l-0.2,1.4c0,0.3,0.1,0.5,0.4,0.5l7.4,1c0.8,0.1,1.3,0.8,1.2,1.6l-0.1,0.7c0,0.2,0,0.2,0.2,0.1l7.9-2.3
					L116.5,69.5z"/>
			</g>
		</g>
	</g>
	<g>
		<g>
			<path class="st0" d="M133.8,61.9l-0.4-0.6c-0.5-0.7-0.2-1.5,0.6-1.7l8.4-1.9c0.9-0.2,1.5,0.5,1,1.3l-4.1,7.5
				c-0.4,0.8-1.3,0.8-1.8,0.1l-0.4-0.6c-0.2-0.2-0.5-0.3-0.7-0.1l-6.1,4.6c-0.6,0.5-1.5,0.3-2-0.3l-0.9-1.1c-0.5-0.6-0.4-1.5,0.3-2
				l6.1-4.6C133.9,62.4,134,62.1,133.8,61.9z M134.2,60.5c-0.2,0-0.2,0.1-0.1,0.2l0.4,0.6c0.5,0.6,0.4,1.5-0.3,2l-6.1,4.6
				c-0.2,0.2-0.3,0.5-0.1,0.7l0.9,1.1c0.2,0.2,0.5,0.3,0.7,0.1l6.1-4.6c0.6-0.5,1.5-0.3,2,0.3l0.4,0.6c0.1,0.1,0.1,0.1,0.2,0
				l4.1-7.4L134.2,60.5z"/>
		</g>
	</g>
	<g>
		<g>
			<path class="st0" d="M157.1,58.8l0.1-0.7c0.1-0.9,0.9-1.2,1.7-0.8l7.3,4.6c0.8,0.5,0.7,1.4-0.2,1.6l-8.3,2.4
				c-0.8,0.2-1.5-0.3-1.4-1.2l0.1-0.7c0-0.3-0.1-0.5-0.4-0.5l-7.6-1.1c-0.8-0.1-1.3-0.8-1.2-1.6l0.2-1.4c0.1-0.8,0.8-1.3,1.6-1.2
				l7.6,1.1C156.8,59.3,157,59.1,157.1,58.8z M158.3,58.2c-0.2-0.1-0.2-0.1-0.2,0.1L158,59c-0.1,0.8-0.8,1.3-1.6,1.2l-7.6-1.1
				c-0.3,0-0.5,0.1-0.5,0.4L148,61c0,0.3,0.1,0.5,0.4,0.5l7.6,1.1c0.8,0.1,1.3,0.8,1.2,1.6l-0.1,0.7c0,0.2,0,0.2,0.2,0.2l8.2-2.4
				L158.3,58.2z"/>
		</g>
	</g>
	<g>
		<g>
			<path class="st0" d="M172,50.3l-0.5-0.5c-0.7-0.6-0.6-1.5,0.2-1.8l7.8-3.7c0.9-0.4,1.5,0.2,1.3,1.1l-2.4,8.3
				c-0.2,0.8-1.1,1.1-1.8,0.5l-0.5-0.5c-0.2-0.2-0.5-0.1-0.7,0.1l-5,5.9c-0.5,0.6-1.4,0.7-2,0.2l-1.1-0.9c-0.6-0.5-0.7-1.4-0.2-2
				l5-5.9C172.2,50.8,172.2,50.5,172,50.3z M172.1,48.9c-0.2,0.1-0.2,0.1,0,0.2l0.5,0.5c0.6,0.5,0.7,1.4,0.2,2l-5,5.9
				c-0.2,0.2-0.1,0.5,0.1,0.7L169,59c0.2,0.2,0.5,0.1,0.7-0.1l5-5.9c0.5-0.6,1.4-0.7,2-0.2l0.5,0.5c0.1,0.1,0.2,0.1,0.2-0.1l2.3-8.2
				L172.1,48.9z"/>
		</g>
	</g>
</g>
</svg>
