<?xml version="1.0" encoding="utf-8"?>
<!-- Generator: Adobe Illustrator 19.2.1, SVG Export Plug-In . SVG Version: 6.00 Build 0)  -->
<svg version="1.1" id="Layer_1" xmlns="http://www.w3.org/2000/svg" xmlns:xlink="http://www.w3.org/1999/xlink" x="0px" y="0px"
	 viewBox="0 0 215 132.2" style="enable-background:new 0 0 215 132.2;" xml:space="preserve">
<style type="text/css">
	.st0{fill:#FFFFFF;stroke:#000000;stroke-miterlimit:10;}
</style>
<rect x="0.1" width="215.3" height="132.2"/>
<circle class="st0" cx="107.5" cy="66.1" r="43.1"/>
<path d="M97.2,80.2c-0.7-9.4,1.9-19.3,3.6-28.5l-2.9,0.5c2.4,9,2.1,18.5,3.6,27.7c0.2,1.3,3.1,0.6,2.9-0.8
	c-1.5-9.2-1.2-18.6-3.6-27.7c-0.3-1.3-2.7-0.5-2.9,0.5c-1.7,9.5-4.3,19.4-3.6,29C94.4,82.2,97.3,81.5,97.2,80.2L97.2,80.2L97.2,80.2
	z"/>
<path d="M96.4,67.5h4.3c0.7,0.1,1.4-0.2,1.9-0.8c0.3-0.6-0.3-0.8-0.8-0.8h-4.3c-0.7-0.1-1.4,0.2-1.9,0.8
	C95.3,67.3,95.9,67.5,96.4,67.5L96.4,67.5z"/>
<path d="M100.3,67.3h0.2c0.7,0,1.4-0.2,2-0.6c0.4-0.3,0.4-0.6-0.2-0.6h-0.2c-0.7,0-1.4,0.2-2,0.6C99.7,67,99.7,67.3,100.3,67.3
	L100.3,67.3z"/>
<path d="M106.6,52.7v27.7c0,1.6,2.9,1.2,2.9-0.2V52.5C109.5,51,106.6,51.4,106.6,52.7L106.6,52.7z"/>
<path d="M103,53c3.4,0,6.8,0,10.3,0c1.6,0,2.3-2.1,0.3-2c-3.2,0.1-6.4,0.1-9.5,0c-0.7-0.1-1.5,0.2-1.9,0.9c-0.2,0.4,0.1,0.9,0.5,1.1
	C102.8,53,102.9,53,103,53L103,53z"/>
<path d="M106.5,52.6l0.1,1.7c0,0.5,2.9,0,2.9-0.8c0-0.6,0-1.2,0-1.7c-0.1-0.6-2.8,0.1-2.9,0.6c0,0.3-0.1,0.5-0.1,0.8
	c0,0.5,2.9,0,2.9-0.8c0-0.2,0-0.4,0-0.5L106.5,52.6c0.1,0.5,0.1,1.1,0,1.6l2.9-0.8l-0.1-1.7C109.4,51.4,106.5,51.8,106.5,52.6
	L106.5,52.6L106.5,52.6z"/>
<path d="M124.3,51l-7.4,0.1c-0.5,0-2.1,0.3-2.1,1l-0.1,28.2c0,0.6,2.9,0.1,2.9-0.8l0.1-28.2l-2.1,1l7.4-0.1
	C124,52.2,126.3,50.9,124.3,51L124.3,51L124.3,51z"/>
<path d="M115.4,64.6l6,0.4c0.7,0.1,1.4-0.1,2-0.6c0.4-0.3,0.4-0.8-0.2-0.8l-6-0.4c-0.7-0.1-1.4,0.1-2,0.5
	C114.8,64.1,114.8,64.6,115.4,64.6L115.4,64.6z"/>
<path d="M107.6,34.5c-0.3,0-0.6,0.1-0.9,0.3c-6.5,4.3-13.7,7.3-21.3,8.9c-0.7,0.2-1.3,0.7-1.6,1.5c-3,9.9-2.7,20.5,0.9,30.2
	c3.8,10.4,12,18.5,22.3,22.3c0.5,0.2,1,0.2,1.4,0c10.4-3.8,18.5-12,22.3-22.3c3.6-9.7,4-20.3,0.9-30.2c-0.2-0.7-0.8-1.3-1.6-1.5
	c-7.6-1.6-14.8-4.6-21.3-8.9C108.6,34.5,108.1,34.4,107.6,34.5z M107.8,39c6.2,3.9,13,6.7,20.2,8.4c2.4,8.7,2,17.9-1.1,26.4
	c-3.3,9-10.2,16.1-19.1,19.6C98.9,89.9,92,82.8,88.7,73.8c-3.1-8.5-3.5-17.7-1.1-26.4C94.8,45.8,101.6,42.9,107.8,39z"/>
</svg>
