<svg id="Layer_1" data-name="Layer 1" xmlns="http://www.w3.org/2000/svg" viewBox="0 0 215 132.24"><defs><style>.cls-1{fill:#fff;}</style></defs><title>gun-tracing</title><rect x="-0.34" width="215.34" height="132.24"/><path class="cls-1" d="M147.87,41.18l12.49,12.49c2.89,2.89,6.42,4.76,7.44,3.74l0.15-.15c1-1-.85-4.55-3.74-7.44L151.72,37.32l-0.36.36-0.93-.93,0.36-.36-1-1-3.86,3.86,1,1,0.36-.36,0.93,0.93Zm19,15-0.15.15c-0.54.54-3-.66-5.41-3l0.68-.68a11.72,11.72,0,0,0,5,2.86A0.73,0.73,0,0,1,166.83,56.13Zm-7-4.19L148.73,40.8l0.67-.67,11.13,11.13ZM146.67,38.85l0.74-.74,0.47,0.47-0.74.74Z"/><path class="cls-1" d="M101.15,42.37l12.49-12.49c2.89-2.89,4.76-6.42,3.74-7.44l-0.15-.15c-1-1-4.55.85-7.44,3.74L97.29,38.52l0.36,0.36-0.93.93-0.36-.36-1,1,3.86,3.86,1-1-0.36-.36,0.93-.93Zm15-19,0.15,0.15c0.54,0.54-.66,3-3,5.41l-0.68-.68a11.72,11.72,0,0,0,2.86-5A0.73,0.73,0,0,1,116.1,23.41Zm-4.19,7L100.78,41.51l-0.67-.67,11.13-11.13ZM98.83,43.57l-0.74-.74,0.47-.47,0.74,0.74Z"/><path class="cls-1" d="M134.27,80.9l12.49,12.49c2.89,2.89,6.42,4.76,7.44,3.74l0.15-.15c1-1-.85-4.55-3.74-7.44L138.13,77l-0.36.36-0.93-.93,0.36-.36-1-1-3.86,3.86,1,1,0.36-.36,0.93,0.93Zm19,15-0.15.15c-0.54.54-3-.66-5.41-3l0.68-.68a11.72,11.72,0,0,0,5,2.86A0.73,0.73,0,0,1,153.23,95.85Zm-7-4.19L135.13,80.53l0.67-.67L146.93,91ZM133.08,78.58l0.74-.74,0.47,0.47-0.74.74Z"/><path class="cls-1" d="M73.42,93.06L85.91,80.58c2.89-2.89,4.76-6.42,3.74-7.44L89.49,73c-1-1-4.55.85-7.44,3.74L69.57,89.21l0.36,0.36L69,90.5l-0.36-.36-1,1L71.47,95l1-1-0.36-.36,0.93-.93Zm15-19,0.15,0.15c0.54,0.54-.66,3-3,5.41L84.9,79a11.72,11.72,0,0,0,2.86-5A0.73,0.73,0,0,1,88.37,74.1Zm-4.19,7L73,92.2l-0.67-.67L83.51,80.4ZM71.1,94.26l-0.74-.74L70.82,93l0.74,0.74Z"/><path class="cls-1" d="M58.41,27.82L70.89,40.31c2.89,2.89,6.42,4.76,7.44,3.74l0.15-.15c1-1-.85-4.55-3.74-7.44L62.26,24l-0.36.36L61,23.4,61.33,23l-1-1-3.86,3.86,1,1,0.36-.36,0.93,0.93Zm19,15-0.15.15c-0.54.54-3-.66-5.41-3l0.68-.68a11.72,11.72,0,0,0,5,2.86A0.73,0.73,0,0,1,77.37,42.77Zm-7-4.19L59.27,27.45l0.67-.67L71.07,37.91ZM57.21,25.5L58,24.75l0.47,0.47L57.68,26Z"/><path class="cls-1" d="M112.62,64.05l16.08-7.29c3.72-1.68,6.71-4.33,6.12-5.65l-0.09-.2c-0.6-1.32-4.56-.81-8.28.88l-16.08,7.29,0.21,0.46-1.2.54-0.21-.46-1.32.6,2.25,5,1.32-.6-0.21-.46,1.2-.54Zm20.67-12.48,0.09,0.2c0.31,0.69-1.68,2.59-4.67,4l-0.4-.87a11.72,11.72,0,0,0,4.43-3.67A0.73,0.73,0,0,1,133.29,51.57Zm-6.38,5-14.34,6.5-0.39-.86,14.34-6.5ZM110,64.35l-0.43-1,0.6-.27,0.43,1Z"/><path class="cls-1" d="M101.2,90.47l10,14.57c2.31,3.37,5.43,5.86,6.63,5L118,110c1.19-.82,0-4.63-2.31-8l-10-14.57-0.42.29-0.74-1.08L105,86.3l-0.82-1.2-4.5,3.08,0.82,1.2,0.42-.29,0.74,1.08Zm15.89,18.18-0.18.12c-0.63.43-2.85-1.21-4.78-3.9l0.79-.54a11.72,11.72,0,0,0,4.39,3.72A0.73,0.73,0,0,1,117.09,108.65Zm-6.08-5.4-8.9-13,0.78-.53,8.9,13ZM100.46,88l0.87-.6,0.37,0.54-0.87.6Z"/><path class="cls-1" d="M47.39,71.22l16.35-6.66c3.78-1.54,6.88-4.07,6.33-5.41L70,58.95c-0.55-1.34-4.53-1-8.31.56L45.33,66.17l0.19,0.47-1.22.5-0.19-.47-1.34.55,2.06,5.05,1.34-.55L46,71.24l1.22-.5ZM68.53,59.54l0.08,0.2c0.29,0.7-1.78,2.53-4.82,3.84l-0.36-.89A11.72,11.72,0,0,0,68,59.21,0.73,0.73,0,0,1,68.53,59.54ZM62,64.34L47.38,70.28,47,69.4,61.6,63.46ZM44.78,71.42l-0.4-1L45,70.19l0.4,1Z"/></svg>