<?xml version="1.0" encoding="utf-8"?>
<!-- Generator: Adobe Illustrator 19.2.1, SVG Export Plug-In . SVG Version: 6.00 Build 0)  -->
<svg version="1.1" id="Layer_1" xmlns="http://www.w3.org/2000/svg" xmlns:xlink="http://www.w3.org/1999/xlink" x="0px" y="0px"
	 viewBox="0 0 215 132.2" style="enable-background:new 0 0 215 132.2;" xml:space="preserve">
<style type="text/css">
	.st0{fill:#FFFFFF;stroke:#000000;stroke-miterlimit:10;}
</style>
<rect x="-0.6" y="-0.2" width="216.1" height="132.7"/>
<circle class="st0" cx="107.5" cy="66.1" r="57.4"/>
<g>
	<path d="M143.3,52.2c0.2,5.2,0.4,10.2,0.2,15c-0.2,2.6,0,5.3-0.3,8c-0.1,0.4-0.1,0.7,0,1.1c0.6,4.1-0.1,8.3,0.2,12.4
		c0.2,2.9,0.2,6,0.2,8.9v0.7c-0.3,1.6-0.7,1.9-2.2,1.7c-1.7-0.1-3.4-0.1-5.2,0.1c-2.2,0.1-4.4,0.1-6.6-0.2c-2.9-0.2-5.8,0-8.7,0.5
		c-2.4,0.3-4.9,0.4-7.3,0.4c-1.3,0-2.7,0-4,0.1c-1.3,0.1-2.7,0.1-4-0.2c-0.7-0.1-1.4-0.2-2-0.2c-3.4-0.2-7,0-10.4-0.4
		c-0.6,0-1.3,0-1.9,0.2c-2.5,0.4-4.8-0.1-7.3-0.2c-3,0-6.1-0.1-9.2,0.2c-1.3,0.1-1.6-0.2-1.3-1.5c0.1-0.2,0.1-0.4,0.2-0.7
		c-1.1-1.6,0-3.2-0.3-4.8c-0.3-1.5-0.4-3.1-0.4-4.7c0-3-0.3-6-0.4-9c-0.2-4.3-0.2-8.6,0-12.9c0.1-1.1,0.1-2.2-0.2-3.3
		c-0.4-1.5,0.2-3.1,0.1-4.8c0-1.3-0.1-2.5-0.3-3.8c-0.6-1.7-0.5-3.5-0.6-5.3c-0.1-0.4,0.2-0.8,0.6-0.9c0.1,0,0.1,0,0.2,0
		c1,0.2,1.5-0.5,2-1c2.1-1.8,4.3-3.4,6.6-5l8.6-5.9c0.7-0.5,1.5-1,2.2-1.4c0.7-0.4,1.4-0.9,1.9-1.5c0.2-0.3,0.5-0.5,0.7-0.7
		c2.1-1.2,3.7-3.1,5.4-4.8c0.9-0.9,1.9-1.7,3.1-2.1c1.1-0.4,2-1.6,3.4-1.7c0.3,0,0.2-0.2,0.2-0.5c-0.1-0.8,0.2-0.9,0.9-0.6
		c1.6,0.8,3.3,1.3,5,1.7c1.6,0.3,3.2,1,4.6,1.9c3.4,2.1,6.6,4.6,9.5,7.3c1.3,1.2,2.9,2.1,4.3,3.3c2.6,2,5.1,4.2,7.3,6.6
		c0.7,0.7,1.4,1.3,2.2,1.9c0.5,0.3,0.9,0.8,1.1,1.3c0.1,0.5,0.5,0.8,1,0.8c0.4,0,0.8,0.3,0.8,0.7c0,0.1,0,0.3-0.1,0.4
		C143,50.3,143.1,51.3,143.3,52.2z M74.4,56.4c0-0.4,0.2-0.8,0.6-1.1c1.1-1.2,2.3-2.3,3.6-3.2c0.7-0.3,1.2-0.9,1.4-1.6
		c-2.3,0.4-4.6,0.5-6.9,0.3c0.3,1.4,0.4,2.9,0.3,4.3C73.3,56.5,73.3,56.5,74.4,56.4c-0.8,0.9-0.6,2.4-1.2,3.4
		c-0.2,0.5-0.2,1,0.1,1.4c0.9-0.4,1.2-1.4,2.1-1.8c0,1.1-1.4,1.7-1.1,2.9c1.8-1.7,3.8-2.9,5.4-4.6c0.4-0.5,1-0.8,1.7-0.7
		c2,0.5,4,0.1,6.1,0.3c0.2,0,0.5-0.1,0.7-0.2L87.8,56c-0.4,0-0.8,0.2-1,0.5c-1.1,1-1.1,1-1.9-0.4c-0.7,0.3-1.4,1.4-2-0.1
		c-0.1-0.2-0.4-0.1-0.6,0.1c-0.2,0.2-0.5,0.3-0.7,0.4c-0.4,0.3-1,0.3-1.3-0.1C80,56,80,55.4,80.4,55c0.5-0.5,0.8-1.2,0.9-1.9
		c-1.6,1.5-2.9,2.7-4.2,4.1c-0.3,0.4-0.6,0.7-1.1,0.8c-0.4,0.1-0.7-0.2-0.6-0.6c0.1-0.3,0.3-0.6,0.6-0.8c0.7-1.1,1.4-2.1,2.1-3.3
		C76.8,54.2,75.8,55.6,74.4,56.4z M81.8,59c-0.1,0.4-0.1,0.8-0.2,1.1c0.4,6.7,0.2,13.4,0.6,20.2c0.2,3.1,0.1,6.2,0.1,9.3
		c0,1.6,0.2,1.7,1.6,1.4c1.8-0.3,3.7-0.4,5.6-0.2c3.8,0.3,7.7,0.3,11.5-0.2c1.8-0.2,3.6-0.7,5.5-0.2c1.1,0.3,2.3,0.3,3.4,0
		c0.6-0.1,1.3-0.1,1.9,0c2.3,0.2,4.6,0,7,0.1c2.2,0,4.5-0.1,6.7,0.1c2.2,0.2,4.5,0.4,6.7-0.2c0.5,0,0.9-0.5,0.9-1
		c0-1.7,0.2-3.4,0.2-5c0-3.8,0.6-7.6-0.1-11.4v-0.5l0.5-8.9c0.1-1.1-0.1-2.2,0.1-3.3c0.2-1.3,0.1-1.5-1.1-1.4
		c-2.9,0.1-5.8,0-8.7-0.2c-3.4-0.1-6.7-0.1-10.1,0.2c-2.8,0.2-5.6,0.2-8.3,0.3c-2.4,0.1-4.8,0.1-7.1-0.1c-2.1-0.2-4.2-0.2-6.2-0.1
		c-2.6,0-5.2-0.2-7.8,0.2C83.6,59.3,82.7,59.1,81.8,59L81.8,59z M139.4,47.9c-0.7-1.1-1.7-1.6-2.3-2.2c-1-1.2-2.1-2.3-3.4-3.4
		c-2.5-1.8-4.6-3.8-7.1-5.7c-2.6-2-5-4.3-7.8-6.1c-2.4-1.7-4.6-3.4-7.4-4c-0.4-0.3-0.9-0.1-1.1,0.2c0,0.1-0.1,0.1-0.1,0.2
		c-1,1.5-2.1,1.4-2.8-0.2c-0.3-0.7-0.6-0.6-1.1-0.4c-1.7,0.7-3.3,1.7-4.7,2.9c-2.5,2-4.8,4.2-7.4,6c-5.1,3.5-10.2,6.9-15.3,10.4
		c-1.4,1-2.8,2.1-4,3.3c0.5,0.4,1.2,0.5,1.8,0.4c1.2-0.1,2.4-0.2,3.6-0.2c4.8-0.2,9.7-0.2,14.5-0.4c5.5-0.1,10.9-0.2,16.4-0.2h7.3
		c2.6,0,5.2-0.1,7.9,0.1c2,0.2,4.2-0.4,6.2-0.4C134.8,48.3,137,47.8,139.4,47.9L139.4,47.9z M133.9,56.1c1.1-0.4,2.1-1.1,2.8-2
		c1-1,2-1.9,3.1-2.8c0.3-0.3,0.7-0.6,1.1-0.2c0.3,0.4-0.1,0.8-0.4,1.1s-0.6,0.4-0.8,0.7c-0.3,0.2-0.7,0.6-0.1,1.1
		c0.5,0.3,0.3,0.7-0.1,1.2c-0.7,0.9-1.4,1.7-2,2.7c-0.8,1-1.3,2.1-1.6,3.4c0.5-0.3,1-0.7,1.4-1.2c0.9-0.9,1.9-1.7,2.8-2.6
		c0.2-0.2,0.6-0.3,0.8-0.1c0.2,0.3,0.2,0.7,0,1l-0.7,0.7c-1.1,1.1-2.1,2.4-2.9,3.7c-0.2,0.5-0.7,1-0.3,1.7c1.3-0.5,2.1-1.7,3.1-2.5
		c0.5-0.4,1.1-1.1,1.6-0.5c0.5,0.7-0.3,1.1-0.7,1.5c-1.4,1.2-2.6,2.6-3.6,4.2c-0.5,0.4-0.6,1.1-0.4,1.7c0.7-0.7,1.5-1.4,2.2-2
		c0.7-0.7,1.1-1.7,2.7-1.2c-1.8,2.5-4.6,4.3-5,7.6c0.5-0.1,1-0.4,1.2-0.9l2.2-2.5c0.3-0.4,0.8-0.9,1.3-0.4c0.5,0.5,0,0.8-0.3,1.1
		c-1.4,1.5-2.7,3.2-3.8,5c-0.2,0.2-0.6,0.5-0.2,0.8l0.5-0.5c1.1-1.1,2.2-2.1,3.4-3c0.5-0.3,0.8-0.8,0.7-1.3c0-3.4,0.4-7,0.2-10.4
		c-0.2-3.4-0.2-6.8-0.3-10.3c0-0.5,0.1-1.2-0.7-1.1c-1.2,0.1-2.4-0.3-3.6-0.2c-0.3,0-0.7,0-0.7,0.6s0.4,0.4,0.7,0.2
		c0.2-0.2,0.6-0.1,0.7,0.2c0.1,0.3,0.1,0.6-0.2,0.8c-0.2,0.2-0.6,0.4-0.8,0.7C135.9,53,134.7,54.4,133.9,56.1L133.9,56.1z
		 M136.4,87.7c0.7-0.7,1.2-1.3,1.9-1.9c0.5-0.4,1-1.6,1.8-0.8c0.7,0.6-0.3,1.2-0.7,1.7c-1.2,1.6-2.5,3.1-3.8,4.8
		c-0.5,0.4-0.7,1.1-0.4,1.7c0.9-0.4,1.7-1,2.4-1.7c0.7-0.6,1.2-1.2,1.9-1.8c0.3-0.2,0.8-0.7,1.2-0.2s-0.1,0.8-0.4,1.1
		c-1.2,1.3-2.5,2.5-3.8,3.8c-0.4,0.3-0.6,0.7-0.6,1.1c0.9-0.6,1.7-1.4,2.5-2.2c0.4-0.4,0.9-0.8,1.4-1.1c0.3-0.2,0.7-0.2,1,0.1
		c0.2,0.3,0.1,0.6-0.1,0.8c-0.7,1.1-1.3,2-2,3c-0.5,0.5-0.8,1.2-0.9,1.9c0.8,0,1.6,0.1,2.3,0.1c1.5,0,1.9-0.2,1.9-1.8
		c0.1-1.4,0.1-2.9,0-4.3c-0.2-3.1-0.2-6.3,0-9.4c0-0.5-0.1-1.1-0.1-1.7C139.5,82.8,137.7,85.1,136.4,87.7L136.4,87.7z M100.9,55.3
		c0.9-0.8,1.7-1.7,2.6-2.4c0.9-0.7,1.6-1.8,2.4-2.6c-0.4-0.3-0.9-0.4-1.4-0.3c-1.3,0.1-2.5,0.2-3.8,0.2c-2.9,0.1-5.8,0.1-8.7,0.2
		c-0.9,0-2-0.2-2.1,1.2c-0.2,0.3-0.4,0.6-0.7,0.7c-0.9,0.8-1.5,1.8-1.9,2.9c1.3-1.2,2.4-2.1,3.4-3c0.3-0.2,0.7-0.7,1.1-0.2
		c0.4,0.4,0.2,0.8-0.2,1.1c-0.6,0.5-1,1.1-1.4,1.7c0.5-0.2,1-0.5,1.4-1c0.7-0.7,1.4-1.4,2-2.1c0.4-0.4,0.9-1,1.5-0.4
		c0.6,0.6-0.2,0.8-0.7,1.1c-0.8,0.8-1.8,1.6-2,2.9c1.1-1.1,2-2,3-2.9c0.3-0.4,0.6-0.7,1-1c0.2-0.1,0.5-0.1,0.7,0.1
		c0.2,0.2,0.2,0.4,0.2,0.7c-0.2,0.3-0.4,0.6-0.6,0.8c-0.8,0.9-1.5,1.9-2,3c1.2-0.4,2.1-1.3,2.8-2.4c0.3-0.7,0.8-1.3,1.5-1.7
		c0.3-0.3,0.8-0.5,1.3-0.3c0.7,0.2,0,0.9,0.3,1.4c0.7-0.7,1.1-1.4,1.7-2c0.2-0.3,0.5-0.5,0.9-0.3c0.1,0,0.1,0.1,0.2,0.1
		c0.4,0.4,0.1,0.7-0.2,1C102,52.9,101.1,53.9,100.9,55.3L100.9,55.3z M78.9,92.2c-0.3-0.1-0.6,0.1-0.8,0.3c-0.5,0.6-1.1,1.1-1.6,1.7
		c-0.3,0.3-0.7,0.3-1,0.1c-0.3-0.2-0.4-0.6-0.2-0.9c0.2-0.4,0.3-0.7,0.5-1.1c0.4-0.9,0.9-1.8,1.4-2.9c-1,0.1-1.3,1-1.9,1.1
		c-1,0.2-1.1,0.8-1,1.7c0.1,0.6,0,1.1,0.1,1.7c0.1,1.5,0.3,2.9,0.8,4.3c0.1,0.3,0.4,0.6,0.7,0.6c2.9,0.1,5.9,0.2,8.9,0.2
		c0.3,0,0.8,0.1,0.8-0.4c0.1-1.1,1-2,0.9-3.2c-1.2,0.5-2,1.6-2.9,2.4c-0.3,0.2-0.6,0.6-1.1,0.2c-0.5-0.3-0.3-0.8-0.1-1.2
		c0.2-0.4,0.4-0.8,0.6-1.2c0.2-0.4,0.7-0.9,0.5-1.6c-1.2,0.7-2.2,1.5-3.1,2.5c-0.3,0.3-0.6,0.6-0.9,0.8c-0.3,0.2-0.7,0.2-1-0.1
		c-0.2-0.2-0.2-0.6,0-0.8c0.2-0.3,0.7-0.6,0.4-1.1c-0.7,0.2-0.8,1.1-1.6,1.2c-0.3,0.1-0.6,0.1-0.8-0.1c-0.2-0.2-0.3-0.5-0.2-0.8
		c0.2-0.3,0.4-0.7,0.7-1C77.8,93.8,78.4,93,78.9,92.2L78.9,92.2z M108.6,57.2c0.2,0.1,0.3,0.2,0.5,0.2c4.8,0,9.6-0.2,14.4-0.5
		c0.3,0,0.7,0.1,1,0.1c1.5,0.1,2.9,0.6,4.5,0.3c0.8-0.2,1.6-0.3,2.4-0.1c0.3,0.1,0.6,0,0.7-0.2c0.1-0.2,0.2-0.6-0.1-0.7
		c-1-0.3-0.5-1.2-0.8-2c-0.8,0.6-1.6,1.1-2.2,1.6c-0.7,0.5-1.3,1-1.8-0.2c-0.1-0.2-0.2-0.4-0.3-0.2c-0.9,0.5-2-0.3-2.9,0.7
		c-0.6,0.7-1.1,0.4-1.4-0.6c-0.1-0.2,0.1-0.5-0.2-0.6c-0.4,0.2-0.8,0.5-1,0.9c-0.4,0.4-0.8,1-1.4,0.8c-0.7-0.2-0.3-1-0.4-1.6
		c0-0.2-0.1-0.2-0.2-0.2c-0.4,0.4-0.8,0.8-1.2,1.1c-0.2,0.3-0.5,0.3-0.8,0.2c0,0-0.1,0-0.1-0.1c-0.5-0.7-0.8-0.4-1.4,0
		c-0.9,0.7-1.1,0.6-1.4-0.6c-0.1-0.2,0.1-0.5-0.3-0.5c-0.4,0.3-0.9,0.6-1.2,0.9c-1,0.7-1.1,0.7-1.4-0.5c0.1-0.2,0-0.5-0.2-0.6
		C110.2,55.5,109.7,56.7,108.6,57.2z M75.9,88.8c1.1-0.9,2.3-1.7,3.4-2.6c0.6-0.8,1.1-1.7,1.3-2.7c0.4-2.3-0.1-4.6,0.1-6.9
		c0.1-0.4,0-0.8-0.2-1.1c-1.6,0.8-3.9,4.1-4.3,5.7c0.4-0.3,0.8-0.8,1.3-1.2c0.5-0.4,0.8-0.8,1.3-0.4c0.5,0.4,0.2,0.9-0.2,1.3
		c-0.5,0.5-1,1-1.4,1.6c-0.2,0.2-0.7,0.6-0.2,1.1c0.3-0.1,0.5-0.3,0.7-0.5c0.4-0.4,0.8-0.8,1.3-1.1c0.3-0.2,0.7-0.7,1.2-0.2
		s0,0.9-0.2,1.2c-0.4,0.6-0.9,1.1-1.4,1.6C77.4,85.7,76.5,87.2,75.9,88.8z M98.8,98.7c0.1,0.1,0.1,0.2,0.2,0.3
		c3.4,0.1,6.8,0.2,10.3,0.3c1.1,0,2.3-0.1,3.4-0.1c0.2,0,0.7,0.1,0.7-0.3c0.1-1.7,1.5-2.5,2.1-4.2c-1.4,0.9-2.7,2-3.9,3.1l-1,1
		c-0.3,0.2-0.7,0.2-1,0c-0.3-0.2-0.3-0.6-0.1-0.9c0.5-0.6,0.8-1.3,1.1-2c-0.6,0.4-1.2,1-1.7,1.6c-0.4,0.5-0.9,0.9-1.4,1.3
		c-0.3,0.3-0.7,0.3-1,0c0,0-0.1-0.1-0.1-0.1c-0.2-0.3-0.3-0.7-0.1-1c0.2-0.5,0.8-0.8,0.7-1.7c-1,0.7-1.9,1.4-2.8,2
		c-0.5,0.3-1,0.7-1.6,0.2s-0.4-1.1,0-1.7l1.2-1.7C101.9,96,100.2,97.2,98.8,98.7L98.8,98.7z M115.8,96.4l0.2,0.2
		c1.3-1.2,2.6-2.4,3.9-3.6c0.3-0.3,0.6-0.5,1-0.7c0.2-0.1,0.5,0,0.7,0.2c0.2,0.2,0.2,0.4,0.2,0.7c-0.2,0.3-0.4,0.6-0.6,0.8
		c-0.6,0.7-1.2,1.5-2,2.4c2-0.9,4.3-2.9,5.1-4.4h-8.8c-0.5-0.1-0.9,0.2-1.1,0.6c-0.2,1-1.1,1.7-1.4,3.1c0.9-0.9,2-1.7,3.1-2.2
		c0.4-0.3,1-0.3,1.4,0.1c0.2,0.4,0.1,1-0.2,1.3C116.7,95.3,116.2,95.8,115.8,96.4L115.8,96.4z M105.8,56c1-0.4,2-1.1,2.6-2
		c0.7-0.8,1.4-1.6,2.1-2.3c0.4-0.4,0.8-1.3,1.5-0.7c0.8,0.7-0.2,1.1-0.7,1.4c-0.9,0.7-1.6,1.6-2,2.7c1.7-1.8,3.8-3.3,5.7-5.3
		c-2.3,0-4.3,0.1-6.2,0.1c-1.1,0-2.2-0.2-2.4,1.4c-0.1,0.2-0.3,0.4-0.4,0.5c-0.3,0.5-0.7,1-1,1.6c0.7-0.3,1.3-0.8,1.7-1.4
		c0.4-0.6,1-1,1.7-1.3c0.3-0.1,0.6,0,0.7,0.2c0.1,0.2,0,0.5-0.2,0.7l-1.5,1.4C106.8,53.8,106.2,54.9,105.8,56z M135.5,80.6
		c0.5,0.1,1-0.1,1.3-0.4c0.9-0.8,1.7-1.6,2.6-2.4c0.4-0.4,0.7-0.9,1.3-0.4s-0.1,0.9-0.3,1.3c-0.4,0.6-0.9,1.1-1.2,1.7
		c-0.5,1-1.5,1.7-1.5,3.1c0.8-0.8,1.5-1.6,2.2-2.2c0.3-0.3,0.7-1,1.2-0.8c1,0.3,0.8-0.4,0.8-0.8c0-1.9-0.1-3.8-0.1-6.1
		C139.5,75.7,137.4,78.1,135.5,80.6z M80.2,63.9c-1.3,0.2-2,1.1-2.7,2c-0.7,0.8-1.7,1.7-1.7,2.9c1.1-0.4,1.6-1.4,2.5-1.9
		c0.2-0.2,0.5-0.2,0.7,0.1c0,0,0,0,0,0c0.1,0.2,0.1,0.5-0.1,0.7l-0.7,0.7c-0.8,1.1-1.9,2-2.5,3.4c0.2,0.1,0.4,0.1,0.6,0
		c1.2-0.8,2.2-1.9,3.7-2.3c0.4-0.2,0.6-0.6,0.5-1C80.6,66.9,80.5,65.4,80.2,63.9z M104,97.2c1.7-1.3,3.4-2.7,5.2-4
		c0.4-0.3,0.7-0.7,1.2-0.4c0.7,0.3,0.2,0.8,0,1.2c-0.1,0.1-0.1,0.3,0,0.4c0,0,0.1,0,0.1,0.1c0.9-0.7,1.7-1.5,2.4-2.4
		c-2-0.2-4.1-0.3-6.1-0.2C106.7,94.1,104.5,95.2,104,97.2L104,97.2z M85.2,94.8c0.8-0.6,1.7-1.1,2.5-1.6c0.3-0.2,0.8-0.7,1.2-0.1
		c0.2,0.4,0.2,1-0.2,1.3c-0.3,0.3-0.5,0.6-0.7,1c-0.2,0.6-0.9,1-0.6,1.8c1.9-1.6,3.4-3.4,5.7-4.8c-1.6-0.3-2.8,0-4-0.2
		C87.1,91.8,86.1,92.5,85.2,94.8L85.2,94.8z M74.6,66.4c1-0.5,1.9-1.2,2.6-2c0.6-0.7,1-1.5,2-1.6c0.5,0.1,1-0.3,1-0.8
		c0-0.1,0-0.3,0-0.4c0-0.7,0-1.4-0.2-2C77,61.7,74.8,64.5,74.6,66.4z M98.7,97.3c2.5-1.6,4.9-3.5,7.1-5.5c-0.7-0.2-1.4-0.2-2.1-0.2
		c-0.9,0.2-2,0.1-2.1,1.5c-0.2,0.4-0.4,0.7-0.7,1C100.1,95.1,99,96,98.7,97.3z M96.1,95.6c0.7-0.6,1.4-1.1,2.2-1.7
		c0.7-0.5,1.4-1,1.9-1.7c-2.2,0-4.3,0.1-6.4,0.1c0.4,1.1-0.7,1.7-0.9,2.9c0.6-0.4,1.3-0.9,2-1.2c0.5-0.2,1.1-1,1.7-0.4
		S96.4,94.7,96.1,95.6z M125.5,97.1c1.6-1.1,3.1-2.3,4.5-3.7c0.5-0.5,1-1,1.7-0.6s-0.2,0.9-0.1,1.5c0.3-0.3,0.7-0.4,1.1-0.6
		c0.5-0.1,0.8-0.6,0.7-1.1c0,0,0-0.1,0-0.1c-0.1-0.6-0.6-0.5-1-0.5c-1,0.1-2,0.2-2.9,0.2c-0.5-0.2-1,0.1-1.1,0.6c0,0,0,0,0,0.1
		c-0.4,0.7-0.9,1.5-1.5,2.1C126.2,95.6,125.8,96.3,125.5,97.1L125.5,97.1z M102,55.5c-2.2,1.7-2.2,1.7-3-0.2
		c-0.8,0.6-1.4,1.4-1.9,2.2c3.7,0,7.1,0.3,10.6-0.2c-0.1-0.7-0.2-1.2-1.1-0.7c-0.7,0.5-1.4,1.1-2,0c-0.7-1.1-1.4,0.8-2.2,0
		C102.2,56.3,102.1,55.9,102,55.5z M81.8,54.9c1.4-0.8,2.7-1.8,3.7-3.1c0.3-0.4,0.7-0.7,1.2-0.9c0.1-0.1,0.3-0.1,0.4,0c0,0,0,0,0,0
		c0.1,0.1,0.1,0.3,0.1,0.5c-0.1,0.3-0.4,0.6-0.7,0.7c-0.8,0.7-1.4,1.6-1.8,2.5c1.6-1.5,3.1-2.5,3.9-4.3c-1.2-0.1-2.4-0.1-3.5-0.1
		c-0.4,0-0.9-0.1-1.1,0.4C83.7,52.4,82.4,53.5,81.8,54.9z M122.2,53.7c1.1-0.9,2.1-1.7,3.2-2.6c0.3-0.3,0.6-0.5,1-0.7
		c0.2,0,0.5,0,0.7,0.2c0.1,0.2,0.1,0.5,0,0.7c-0.5,0.6-1.1,1.1-1.6,1.7c-0.6,0.4-1,1.1-1,1.9c1.5-1.4,2.9-2.9,4.2-4.5
		C125.5,49.3,124,50.5,122.2,53.7L122.2,53.7z M93.8,96.3c-1,0.4-1.9,1-2.7,1.7c-0.3,0.4-0.8,0.5-1.2,0.2c-0.3-0.3-0.4-0.7-0.2-1.1
		c0-0.2,0.3-0.4-0.2-0.5c-0.8,0.6-1.5,1.4-2,2.4c2,0,3.8-0.1,5.7-0.1C93.1,98,93.3,97.1,93.8,96.3z M135.6,49.5
		c-1.3-0.1-2.5,0.1-3.4,1.3c-0.7,0.9-1.5,1.8-2.4,2.5c-0.3,0.2-0.5,0.5-0.3,0.9c0,0,0,0.1,0.1,0.1C131.7,52.9,133.8,51.3,135.6,49.5
		z M77.4,72.5c-1.5,0.6-2.1,2.1-3.7,2.5c-0.1,0.1-0.2,0.3-0.2,0.4c-0.1,1-0.1,2,0.1,2.9C75.3,76.6,76.2,74.4,77.4,72.5z M80.1,70.9
		c-1.7,1.7-2.5,3.7-3.9,5.6h0.4c1.3-0.8,2.1-2.3,3.8-2.7c0.1-0.1,0.2-0.3,0.2-0.4C80.1,72.8,80.8,71.8,80.1,70.9z M120.6,96.7
		c-0.7,0.5-1.2,1.1-1.9,1.5c-0.3,0.3-0.8,0.3-1.1,0c-0.1-0.1-0.2-0.3-0.2-0.5c0-0.3-0.1-0.6-0.2-0.8c-1,0.7-1.8,1.6-2.6,2.5
		c2.1-0.1,3.9,0.1,5.7-0.2C120.3,98.4,120.4,97.5,120.6,96.7z M74.9,67.7c-1.5-0.2-1.5-0.2-1.5,1c0,1-0.1,2,0,2.9
		c-0.1,0.4,0,0.9,0.4,1.1c0.3-0.4,0.7-0.9,1-1.3c0.2-0.2,0.3-0.4,0.2-0.7C73.9,69.8,74.7,68.8,74.9,67.7z M137.8,95.2
		c-0.3,0.2-0.6,0.4-0.8,0.6c-1,0.7-1.8,1.8-3.2,1.9c-0.4,0-0.7,0.3-0.8,0.7c0,0.1,0,0.2,0,0.2C136.4,98.8,136.4,98.8,137.8,95.2
		L137.8,95.2z M137.1,81.4c-2.8,1.1-2.2,3.4-2.2,6C136.4,85.4,135.9,83.1,137.1,81.4L137.1,81.4z M77.1,91.7
		c0.1,0.1,0.2,0.2,0.3,0.2c0.7-0.6,1.4-1.2,2.1-1.7c1.1-0.6,1.4-2,0.8-3.1C79.2,88.5,78.1,90,77.1,91.7z M74,82.9
		c0.5-0.7,0.9-1.5,1.1-2.3c0.2-0.7,1.1-1.3,1-2.3c-0.9,0.3-1.2,1.5-2.3,1.2c-0.1,0.1-0.2,0.2-0.2,0.4C73.6,80.9,73.3,81.9,74,82.9z
		 M116.1,54.4c1.8-1.2,3.5-2.7,5-4.3c-0.6-0.2-1.3-0.3-2-0.1c-0.6,0.2-0.2,0.8-0.5,1.1c-0.4,0.4-0.8,0.9-1.1,1.4
		C117.1,53.1,116.5,53.8,116.1,54.4L116.1,54.4z M94.4,98.7c1.7,0.3,2.1,0.3,2.3-0.3c0.3-1.1,1.1-2,1.5-3.4
		C96.8,96.3,95.4,97.2,94.4,98.7L94.4,98.7z M135,76.8c0.6-0.7,1.1-1.2,0.9-1.8c-0.6-1.2-0.2-2.4,0.1-3.5c0.1-0.2,0.4-0.7-0.1-0.9
		c-0.2-0.1-0.4-0.1-0.7-0.1c-0.3,0.1-0.2,0.5-0.2,0.7C134.9,73,135,74.7,135,76.8L135,76.8z M132.5,95.1c-1.5,0.7-2.8,1.8-3.7,3.2
		c1.1,0,1.9,0.2,2.3-0.7S132.1,95.9,132.5,95.1L132.5,95.1z M135.1,67.7c0.7-0.9,2-1.7,0.7-3c-0.3-0.3-0.1-1.2-0.1-2.2
		C134.7,64.4,135.4,66.1,135.1,67.7L135.1,67.7z M78.8,54.3c1.5-0.9,2.7-2.1,3.8-3.5c-0.3-0.2-0.7-0.4-0.8-0.2
		C80.8,51.7,79.5,52.5,78.8,54.3z M117.4,50.3c-0.5-0.2-1.1-0.3-1.1-0.1c0.1,1.1-0.9,1.2-1.4,1.9c-0.5,0.5-0.9,1.1-1.1,1.8
		C115.1,52.8,116.3,51.6,117.4,50.3z M123.8,96.5c-0.8,0.6-1.5,1.4-2,2.3C123.8,98.5,123.8,98.5,123.8,96.5L123.8,96.5z M133.7,53.5
		c1-0.7,1.8-1.6,2.5-2.5C135.2,51.5,134.3,52.4,133.7,53.5L133.7,53.5z M90.8,57.3c0-0.5-0.2-0.9-0.5-1.2c-0.6,0.3-1,0.7-1.2,1.3
		C89.7,57.5,90.2,57.4,90.8,57.3z M75.4,86.7c-1.7,0.5-1.8,0.6-1.1,1.9c0.3-0.4,0.6-0.8,0.9-1.2C75.2,87.3,75.3,87.1,75.4,86.7z
		 M125.7,98.3c1.5,0.1,1.5,0.1,1.8-1.6C127,97.2,126.5,97.6,125.7,98.3L125.7,98.3z M73.5,65.5c0.6-0.6,1-1.3,1.1-2.1
		C74.1,63.9,73,64,73.5,65.5z M125.1,94c0.6-0.5,1.2-1,1.7-1.7C125.6,92.2,125.6,92.2,125.1,94z M74,85.6c0.9-1.5,0.9-1.5-0.1-1.9
		C73.9,84.3,73.4,84.8,74,85.6z M134.5,94.8c-0.7,0.5-1.2,1.2-1.5,2C134,96.6,134.3,96,134.5,94.8L134.5,94.8z M99.7,53.3
		c-0.8,0.3-1.4,0.9-1.7,1.7C98.8,54.7,99.4,54.1,99.7,53.3z M135.2,79c0.2-0.1,0.4-0.3,0.4-0.6c0-0.2-0.2-0.4-0.5-0.4
		c-0.1,0.2-0.1,0.4-0.2,0.6C135.1,78.9,135,79.1,135.2,79z M95.5,56.7c-0.2,0-0.4,0.1-0.6,0.3c-0.2,0.2,0.2,0.2,0.2,0.2
		c0.2,0.1,0.5,0,0.5-0.2C95.8,57,95.7,56.8,95.5,56.7L95.5,56.7z"/>
	<path d="M77.4,51.4c-1.2,1.4-2.3,2.6-3.4,3.9C73.8,53.7,75.5,51.7,77.4,51.4z"/>
	<path d="M95.2,62.6c-2.5-1.1-4,1.4-4.3,3.5c-0.4,2.8,0.1,5.7,3.3,6.4c2.1,0.5,4.9,0.2,5.6-2.2c0.3-1,0.4-2.6-0.5-3.4
		c-1-0.8-2.4-0.3-3.6-0.7l-1.2,1.5c0.5,0,3.2-0.4,2.8,0.5c-0.5,1.2,1.9,1.1,2.3,0.2c0.4-0.8,0.1-1.7-0.6-2.1
		c-1.1-0.8-2.5-0.2-3.6-0.2c-0.7,0-2.6,1.1-1.1,1.6c0.7,0.2,2-0.1,2.6,0.2c0.8,0.4,0.7,1.4,0.6,2c-0.2,1.1-1,1.1-2,0.9
		c-1.6-0.4-2.2-1.5-2.3-3.1c0-0.2,0.2-3.9,0.6-3.8C94.8,64.5,96.6,63.1,95.2,62.6L95.2,62.6L95.2,62.6z"/>
	<path d="M93.4,64.4H96c0.6,0,1.1-0.4,1.3-0.9c0.1-0.6-0.7-0.7-1.1-0.7h-2.6c-0.6,0-1.1,0.4-1.3,0.9C92.3,64.2,93,64.4,93.4,64.4
		L93.4,64.4L93.4,64.4z"/>
	<path d="M93.6,63c0.5,0,0.9,0,1.4,0c0.2,0,0.3,0,0.4,0.1c0,0.2-0.1,0.3-0.3,0.4l1.1-0.4c0.3-0.1,0,0-0.2-0.1
		c-0.2-0.1-0.3-0.2-0.5-0.3c-0.2-0.2-0.4-0.4-0.7-0.5c-1-0.1-2,0.2-2.7,0.8c-0.4,0.3,0.4,0.4,0.6,0.4c0.6,0,1.1-0.2,1.6-0.6l0.2-0.1
		l-1.1,0.4h0.2h-0.8c0.3,0.2,0.5,0.4,0.8,0.7c0.3,0.1,0.5,0.2,0.8,0.3c0.9,0.2,1.9-0.1,2.7-0.6c0.4-0.3,0.9-1,0.3-1.2
		C96.8,62,96,62,95.2,62.1c-0.6,0-1.2,0.2-1.7,0.5C93.2,62.8,93.1,63.1,93.6,63L93.6,63L93.6,63z"/>
	<path d="M100,63.6c-0.2,2.7,1.3,8,4.8,7.9c4.6-0.2,3.8-5.8,3.8-8.9c0-1.1-2.4-0.7-2.4,0.2c0,1.2,0,2.4,0,3.5c0,0.5,0,1,0,1.4
		c0,0.9,0.1,1.6-1,1.6c-0.5,0.1-1.1-0.2-1.2-0.8c-0.3-0.6-0.6-1.1-0.8-1.8c-0.5-1.1-0.7-2.3-0.7-3.6C102.5,62.2,100.1,62.6,100,63.6
		L100,63.6L100,63.6z"/>
	<path d="M112,70.5c0-3,0-6,0.1-9l-2.3,0.6c1.6,1.6,2.9,3.3,4.1,5.2c0.8,1.5,1.8,2.9,3,4.2c0.5,0.5,2.3,0,2.3-0.8
		c0.1-2.8,0-5.6,0-8.4c0-0.7-2.4-0.2-2.4,0.6c0.1,2.8,0.1,5.6,0,8.4l2.3-0.8c-1.4-1.3-2.2-2.9-3.2-4.5c-1.2-1.7-2.5-3.4-3.9-4.9
		c-0.4-0.4-2.3-0.1-2.3,0.6c-0.1,3.1-0.1,6.2-0.1,9.3C109.6,71.8,112,71.3,112,70.5L112,70.5L112,70.5z"/>
	<path d="M94.9,76.9c-1.4,0.1-2.8-0.3-4,0.7c-1,1-1.2,2.5-0.5,3.7c0.8,1.1,2.9,1.1,4.1,1.4c1.7,0.5,2.3,1.9,0.9,3.2
		c-1,0.9-2.6,0.8-3.5-0.2c-0.4-0.4-0.6-1-0.6-1.6c0-0.7-2.4-0.2-2.4,0.6c0.1,4.7,8,3.5,9.5,0.4c0.9-1.9-0.5-3.1-2.2-3.5
		c-1.2-0.3-3.5-0.2-3.8-1.8c-0.3-1.8,0.8-1.4,2.1-1.5C95.8,78.1,96.5,76.8,94.9,76.9L94.9,76.9L94.9,76.9z"/>
	<path d="M99.4,77.4c-0.2,3.3-0.1,6.6,0.4,9.9c0.1,0.5,2.5,0,2.4-0.6c-0.5-3.3-0.7-6.6-0.4-9.9C101.8,76.4,99.4,76.7,99.4,77.4
		L99.4,77.4z"/>
	<path d="M103.8,77.7c-0.2,3,0,6.1,0.6,9.1c0.1,0.6,2.5,0,2.4-0.6c-0.7-3-0.9-6-0.6-9.1C106.2,76.6,103.9,76.9,103.8,77.7
		L103.8,77.7z"/>
	<path d="M100.8,82.5h3c0.6,0,1.2-0.2,1.7-0.5c0.3-0.2,0.4-0.5-0.1-0.5h-3c-0.6,0-1.2,0.2-1.7,0.5C100.4,82.3,100.4,82.5,100.8,82.5
		L100.8,82.5L100.8,82.5z"/>
	<path d="M113.3,77c-2.9-0.3-4.2,1.2-4.2,4c0,2.8,1,6.5,4.1,6.9c2.4,0.2,4.5-1.5,4.8-3.9c0.4-2.9-1-5.7-3.5-7.2
		c-0.8-0.5-2.9,0.6-1.9,1.3c2,1.3,4.4,5.1,2.5,7.4c-2.6,3.4-5.4-7.3-2.7-7C113.4,78.7,114.9,77.1,113.3,77L113.3,77L113.3,77z"/>
	<path d="M118,77.3c0.6,3.1,0,6.5,1.4,9.5c0.4,0.9,2.6,0.4,2.4-0.6c-0.5-2.3-0.9-4.6-1.2-6.9c-0.2-1.4-0.7-2.6,1.2-2.8
		c3.2-0.2,1.9,4,0,3.3c-0.9-0.4-2.8,0.9-1.4,1.5c4.5,1.8,8.5-5.3,3.3-6.2c-1.8-0.3-5-0.3-5.6,1.9c-0.4,1.3,0.1,2.9,0.3,4.1
		c0.3,1.9,0.7,3.8,1.1,5.8l2.4-0.6c-1.3-2.9-0.8-6.4-1.4-9.5C120.2,75.8,117.8,76.4,118,77.3L118,77.3L118,77.3z"/>
</g>
</svg>
