<svg id="Layer_1" data-name="Layer 1" xmlns="http://www.w3.org/2000/svg" viewBox="0 0 215 132.24"><defs><style>.cls-1,.cls-2,.cls-3{fill:#fff;}.cls-2{opacity:0.57;}.cls-3{opacity:0.23;}</style></defs><title>gun-tracing</title><rect x="-0.17" y="0.79" width="215.34" height="132.24"/><path class="cls-1" d="M85.26,39.75a8.39,8.39,0,0,1,6.58.44,4,4,0,0,1,2,1.78c1.14,2.4,1.58,4.86.09,7.31a9.5,9.5,0,0,1-3.16,3.22,11.42,11.42,0,0,0-3.31,3.07A1.8,1.8,0,0,0,87.31,58c0.41,0.56,1,1.32.12,2-0.61.47-1.61,0.09-2.25-.85a3.83,3.83,0,0,1-.09-4.8c1.05-1.7,2.69-2.75,4.18-4a13.22,13.22,0,0,0,2.6-2.66c0.94-1.49.47-4.65-.88-5.7a2.18,2.18,0,0,0-.73-0.38A8,8,0,0,0,82,45.07c-0.5.88-.88,1.78,0,2.66a0.64,0.64,0,0,1,0,1.05,1,1,0,0,1-1.14.2,3.33,3.33,0,0,1-1.78-2.84,4.34,4.34,0,0,1,1-2.9C81.52,41.59,83,40,85.26,39.75Z"/><path class="cls-1" d="M87,66.86a2.2,2.2,0,0,1-2.6-1.46,2.48,2.48,0,0,1,2-2.72A2.1,2.1,0,0,1,89.1,64.2,2.58,2.58,0,0,1,87,66.86Z"/><path class="cls-2" d="M62.71,27.35a5.09,5.09,0,0,1,4,.27,2.44,2.44,0,0,1,1.19,1.08,4.4,4.4,0,0,1,.05,4.43A5.75,5.75,0,0,1,66,35.08a6.92,6.92,0,0,0-2,1.86A1.09,1.09,0,0,0,64,38.41c0.25,0.34.6,0.8,0.07,1.21a1,1,0,0,1-1.36-.51,2.32,2.32,0,0,1-.05-2.91,10.56,10.56,0,0,1,2.53-2.41,8,8,0,0,0,1.58-1.61,3.16,3.16,0,0,0-.53-3.46,1.32,1.32,0,0,0-.44-0.23,4.86,4.86,0,0,0-5,2.09,1.22,1.22,0,0,0,0,1.61,0.39,0.39,0,0,1,0,.64,0.59,0.59,0,0,1-.69.12A2,2,0,0,1,59,31.23a2.63,2.63,0,0,1,.58-1.75A5.12,5.12,0,0,1,62.71,27.35Z"/><path class="cls-2" d="M63.76,43.78a1.33,1.33,0,0,1-1.58-.89,1.5,1.5,0,0,1,1.21-1.65,1.27,1.27,0,0,1,1.65.92A1.57,1.57,0,0,1,63.76,43.78Z"/><path class="cls-3" d="M43.89,17.37a3.94,3.94,0,0,1,3.09.21,1.89,1.89,0,0,1,.92.84,3.41,3.41,0,0,1,0,3.44,4.46,4.46,0,0,1-1.48,1.51,5.37,5.37,0,0,0-1.55,1.44,0.84,0.84,0,0,0-.05,1.14c0.19,0.26.47,0.62,0.05,0.93a0.8,0.8,0,0,1-1.06-.4,1.8,1.8,0,0,1,0-2.25,8.19,8.19,0,0,1,2-1.87A6.21,6.21,0,0,0,47,21.11a2.45,2.45,0,0,0-.41-2.68,1,1,0,0,0-.34-0.18,3.77,3.77,0,0,0-3.88,1.62,0.94,0.94,0,0,0,0,1.25,0.3,0.3,0,0,1,0,.49,0.46,0.46,0,0,1-.54.1A1.57,1.57,0,0,1,41,20.38,2,2,0,0,1,41.45,19,4,4,0,0,1,43.89,17.37Z"/><path class="cls-3" d="M44.71,30.11a1,1,0,0,1-1.22-.69,1.16,1.16,0,0,1,.93-1.28,1,1,0,0,1,1.28.71A1.21,1.21,0,0,1,44.71,30.11Z"/><path class="cls-3" d="M30.67,8.67a2.74,2.74,0,0,1,2.15.14,1.31,1.31,0,0,1,.64.58,2.37,2.37,0,0,1,0,2.38,3.1,3.1,0,0,1-1,1,3.72,3.72,0,0,0-1.08,1,0.59,0.59,0,0,0,0,.79c0.13,0.18.32,0.43,0,.65A0.55,0.55,0,0,1,30.65,15a1.25,1.25,0,0,1,0-1.56A5.69,5.69,0,0,1,32,12.13a4.31,4.31,0,0,0,.85-0.87,1.7,1.7,0,0,0-.29-1.86,0.71,0.71,0,0,0-.24-0.12,2.61,2.61,0,0,0-2.69,1.13,0.65,0.65,0,0,0,0,.87,0.21,0.21,0,0,1,0,.34,0.32,0.32,0,0,1-.37.07,1.09,1.09,0,0,1-.58-0.93A1.41,1.41,0,0,1,29,9.81,2.75,2.75,0,0,1,30.67,8.67Z"/><path class="cls-3" d="M31.24,17.51A0.72,0.72,0,0,1,30.39,17,0.81,0.81,0,0,1,31,16.14a0.69,0.69,0,0,1,.89.5A0.84,0.84,0,0,1,31.24,17.51Z"/><path class="cls-1" d="M166.58,66.54a9.7,9.7,0,0,0-2.5,1.9,128.07,128.07,0,0,1-10.4,8.9,49.29,49.29,0,0,0-3.9,4c-1.4,1.4-2.9,2.8-4.3,4.3-0.3.3-.6,0.7-1.1,0.4a1.18,1.18,0,0,1-.2-1.4,1.56,1.56,0,0,1,.6-0.8c2.3-1.3,3.6-3.5,5.3-5.4,2-2.1,4.4-3.6,6.6-5.5,3.2-2.7,6.3-5.6,9.5-8.4,1.3-1.1.3-2.4,0.2-3.6s-1.1-.8-1.8-0.8a10.29,10.29,0,0,1-8.8-7.3c-0.7-2.6-1.8-5.1-.8-7.9a16.3,16.3,0,0,1,7.5-9.2c2.7-1.5,5.8-1.2,8.8-.2,4.6,1.5,6.4,4.8,7.1,9.4,0.8,4.3.1,8-2.8,11.2a12.75,12.75,0,0,1-5.4,3.1c-2.4.8-2.3,1.3-1.6,3.6,0.5,1.7,1.6,2.3,2.9,3.1,4.6,2.5,9,5.3,13.3,8.2,1.9,1.2,3.4,3,5.1,4.5a2.09,2.09,0,0,1,.4.6,1.22,1.22,0,0,1,.1,1.6,1.06,1.06,0,0,1-1.5-.4,34.74,34.74,0,0,0-3.6-3.1,100.56,100.56,0,0,0-14.5-9.5c-2.2-1.2-2.3-1.1-2.4,1.3-0.4,5.8.3,11.6-.3,17.4a88.32,88.32,0,0,0,.1,12.6,3.2,3.2,0,0,0,1.7,2.8c6.2,4.4,12.4,9.1,17.5,14.7,2.8,3,2.6,3.5-.9,4.9a13.12,13.12,0,0,1-3.4.9,1,1,0,0,1-1.1-.4,1.24,1.24,0,0,1,.3-1.4,2.09,2.09,0,0,1,1.3-.7,8.47,8.47,0,0,0,1.7-.4c0.9-.3.9-0.9,0.4-1.6-1-1.1-2-2.2-3.1-3.3-4-3.9-9.1-6.9-13.3-10.9a5.36,5.36,0,0,0-1.1-.5c-1.1-.7-1.7-0.5-2.7.4-5.4,4.7-9,10.6-12.5,16.7a9.13,9.13,0,0,0-.8,1.3c-1.3,3.3-4.2,3.4-7.1,3.6a0.68,0.68,0,0,1-.8-0.4,1,1,0,0,1,.5-1.1,4.14,4.14,0,0,1,1.9-.5,4.13,4.13,0,0,0,3.7-2.2c0.9-1.6,2.1-3.1,3-4.7a55.22,55.22,0,0,1,10.4-13.6,7,7,0,0,0,2.5-6.3c-0.5-4.4.5-8.9,0.5-13.4a24.1,24.1,0,0,0,0-3.8C166.38,75.24,167.28,70.94,166.58,66.54Zm10.8-19.4a13.22,13.22,0,0,0-.5-3.3,9.33,9.33,0,0,0-3.5-5.4c-2.6-1.7-5.7-1.4-8.7-1.6a2.84,2.84,0,0,0-1.2.4,17.38,17.38,0,0,0-6.4,7.3,7.51,7.51,0,0,0-.4,4.2,18.73,18.73,0,0,0,.8,3.4c1,3.3,5.3,6.8,9.1,6a21.62,21.62,0,0,0,4.4-1C175.08,55.64,178.08,51.94,177.38,47.14Z"/></svg>