<svg id="Layer_1" data-name="Layer 1" xmlns="http://www.w3.org/2000/svg" viewBox="0 0 215 132.24"><defs><style>.cls-1{fill:#fff;}</style></defs><title>gun-tracing</title><rect x="0.4" width="215.34" height="132.24"/><path class="cls-1" d="M134.08,84.12l-10.72-.23c-0.87-9,9.19-14.55.58-16.65l-0.18-.76c2.42-1.48,4-3,2.87-5.63l0.7-.62,1.25,0.52,2.09-.79,1-.93,0.87,1,9.08,0.14,0.18,0.32,18.92,0.36A1.21,1.21,0,0,1,162,59.64a1.25,1.25,0,0,1,1.24,1.22l1.45,0-0.05,3.22-1.51,0-0.05,3.28-2.84,0-0.14.82L150,68c-2.34.66-3,2.67-2.86,5.25-2.23,1.35-5.32,1.37-8.91.74C135.51,73.1,135.1,79.53,134.08,84.12Zm9.57-10.64c1.52-.23,2.79-1.09,2.82-2.48h0a2.67,2.67,0,0,0-2.74-2.57l-2.08,0A4.45,4.45,0,0,0,143.53,73c-1.26,0-3.38-1.44-3.27-4.66h-0.63a2.67,2.67,0,0,0-2.82,2.48h0c0,1.39,1.54,2.23,2.74,2.57A10,10,0,0,0,143.65,73.48Z"/><path class="cls-1" d="M75.44,58.08c1.28,0.08,2.56.08,3.84,0.15a1.79,1.79,0,0,1,1.58.53c1.28,1.43,1.36,1.66-.08,3.16A2.42,2.42,0,0,0,80,63.43c-0.08,3.69-.83,7.38-0.15,11a15.68,15.68,0,0,0,3.54,7.38c0.6,0.75,1.58.68,2.26,1.36,2.56,2.56,5.43,4.75,8,7.31a12.67,12.67,0,0,1,3.32,6c0.38,1.28-.15,2.11-1,3.09-1.43,1.58-3.24,1.28-5,1.51-5.27.75-10.62,0.08-15.9,0.68-0.68.08-1.43,0.3-2-.38a1.61,1.61,0,0,0-1.43-.23c-4.6.53-9.19,0.23-13.71,0.23-2.34,0-4.9-.45-6.63-2.56-0.53-.68-1.21-1.36-1.05-2.19,0.23-1.21.15-2.64,1.13-3.54a32,32,0,0,0,3.32-3.77,56.1,56.1,0,0,1,5.35-5.8c2-2,4.22-3.92,6.1-6.18,1.73-2,1.73-4.22,1.58-6.56a32.22,32.22,0,0,1,0-6,3.82,3.82,0,0,0-.68-2.86,4.58,4.58,0,0,1-.68-1.36c-0.38-1.05-.3-1.13.83-1.73C69.87,57.62,72.66,57.93,75.44,58.08Zm1.88,14.54c-0.3-.23-1-0.38-0.83-0.68,0.53-1.21-.3-2.49.3-3.54a0.8,0.8,0,0,0-.15-1.28,1.89,1.89,0,0,1-.6-2.41,1.7,1.7,0,0,0,0-1.36c-0.6-.38-1.43,0-2-0.53a0.8,0.8,0,0,1-.45-0.53,0.66,0.66,0,0,1,.68-0.6,10.65,10.65,0,0,1,3.09-.15,2.37,2.37,0,0,0,2-.9c0.45-.68.38-1.05-0.38-1.28a2.17,2.17,0,0,0-1-.08,53.24,53.24,0,0,1-6.93.15,8.49,8.49,0,0,0-1.36.23c-1.13.23-1.21,0.53-.83,1.58a11.62,11.62,0,0,1,1.28,3.39,0.92,0.92,0,0,0,.83,1.05c0.53,0.08.68,0.9,0.08,0.9-1.21.08-1.13,0.9-1.05,1.66a36.72,36.72,0,0,0,.15,4.07,5.56,5.56,0,0,1-.75,3.62,22.63,22.63,0,0,1-3.09,4c-0.38.45-1.05,0.75-1.05,1.66a2.22,2.22,0,0,0,2.56-.75c0.68-.75,1.21-1,1.81,0a1.67,1.67,0,0,0,1.51.75,11.7,11.7,0,0,1,2.79.3,6.77,6.77,0,0,0,3,.3,3,3,0,0,1,2.79.08,0.65,0.65,0,0,0,.9-0.9,20.37,20.37,0,0,0-1.66-2.49c-0.38-.75.38-2-0.38-2.94a1.85,1.85,0,0,0-.3.83,0.45,0.45,0,0,1-.6.3,0.5,0.5,0,0,1-.45-0.53,5.92,5.92,0,0,1,.6-2c0.15-.75-1.43-1.13-0.6-2,1.21-.53,1.21-0.53,1-2.71C77.33,70.66,78.08,71.87,77.33,72.62Zm6.93,26.07a9.45,9.45,0,0,1,1.13.15c2.64,0.38,5.12-.23,7.69-0.6,0.75-.08,1.58-0.45.75-1.51-0.3-.38.15-0.68,0.45-1,1-1.05,1.05-1.43.08-2.49a22.1,22.1,0,0,0-3.09-2.86c-2.86-2.19-5.8-4.29-8.67-6.56a2.76,2.76,0,0,0-2.26-.6c-1.51.08-3-.15-4.52-0.15a28.17,28.17,0,0,1-5-.68c-1.51-.15-2.86-0.68-4.29.3a1.3,1.3,0,0,1-1.28-.08,1.55,1.55,0,0,0-2.19.6,25.18,25.18,0,0,1-2.41,2.49q-3.16,3.16-6.33,6.56a14.91,14.91,0,0,0-2.19,3.84c-0.45,1-.08,1.51,1,2a18.82,18.82,0,0,0,6.1,1c2.71,0.08,5.35-.45,8.06.08a6.89,6.89,0,0,0,2.49,0C74.46,98.46,79.29,98.69,84.26,98.69Z"/><path class="cls-1" d="M78.31,32.23c0.15,0.83-.45,1.05-0.6,1.51a1.73,1.73,0,0,0,.3,2,1.81,1.81,0,0,0,1.88.6A1.73,1.73,0,0,0,81,34.64c0.08-.45-0.3-1.21.45-1.28s0.68,0.6.68,1.13v0.23c-0.08.53,1.13,0.3,0.68,1.13a2.61,2.61,0,0,1-1.43.9,4.55,4.55,0,0,1-2.26.53,2.82,2.82,0,0,1-2.71-2.34C76.2,33.81,76.72,33,78.31,32.23Z"/><path class="cls-1" d="M83.81,43.61a2.36,2.36,0,0,1-1.81-.9,0.62,0.62,0,0,1,.08-0.9,0.48,0.48,0,0,1,.68,0,2.34,2.34,0,0,0,1.36.68c0.53,0,1.13,0,1.05-.75a1,1,0,0,0-1.05-1.13c-0.45,0-1,.68-1.28-0.08a0.75,0.75,0,0,1,.3-0.83,1.4,1.4,0,0,1,1.58-.38,2.84,2.84,0,0,1,1.51,2.86A2.05,2.05,0,0,1,83.81,43.61Z"/><path class="cls-1" d="M76.72,49.86a1.64,1.64,0,0,1,1.58-1.58,1.88,1.88,0,0,1,1.43,2,1.33,1.33,0,0,1-1.36,1.28A1.64,1.64,0,0,1,76.72,49.86Z"/><path class="cls-1" d="M74.69,43.61a1.26,1.26,0,0,1-1.43,1.21,1.52,1.52,0,0,1-1.43-1.73,1.21,1.21,0,0,1,1.28-1.36A2,2,0,0,1,74.69,43.61Z"/><path class="cls-1" d="M71.68,51a2.31,2.31,0,0,1,1.88,1.51,1.25,1.25,0,0,1-1.36,1.43,3.08,3.08,0,0,1-1.66-2.19A1.07,1.07,0,0,1,71.68,51Z"/><path class="cls-1" d="M79.89,30.5c1,0.15,2,.08,2.71,1.05,0.15,0.23.38,0.6,0,.83-0.23.23-.45,0-0.6-0.23a3.12,3.12,0,0,0-3-.6c-0.38.08-.83,0.3-0.9-0.3a0.69,0.69,0,0,1,.68-0.75A2.85,2.85,0,0,1,79.89,30.5Z"/><path class="cls-1" d="M64.59,84.83a1,1,0,0,1,1.05,1.28,2.75,2.75,0,0,1-3.16,1.51,1.2,1.2,0,0,1-.9-1.13,1.28,1.28,0,0,1,.68-1.05C62.94,84.9,63.84,85.05,64.59,84.83Z"/><path class="cls-1" d="M81.17,84.37a1.74,1.74,0,0,1,1.36,1.81,1.39,1.39,0,0,1-1.58,1.28A1.31,1.31,0,0,1,79.59,86,1.54,1.54,0,0,1,81.17,84.37Zm0.23,1.36A0.3,0.3,0,0,0,81,86a1.71,1.71,0,0,0,.08.3,0.3,0.3,0,0,0,.38-0.3A0.25,0.25,0,0,0,81.4,85.73Z"/><path class="cls-1" d="M87.57,91.31A1.77,1.77,0,0,1,86,93a1.83,1.83,0,0,1-2-1.51,0.48,0.48,0,0,1,.3-0.6,0.39,0.39,0,0,1,.6.3,1.31,1.31,0,0,0,.45.83,0.64,0.64,0,0,0,1-.15,0.42,0.42,0,0,0-.15-0.75c-0.3-.15-0.6-0.3-0.38-0.68a0.72,0.72,0,0,1,.83-0.3A1.15,1.15,0,0,1,87.57,91.31Z"/><path class="cls-1" d="M71.53,87.31a0.93,0.93,0,0,1-1.05-1c0-.53,1.13-1,2-0.9a0.75,0.75,0,0,1,.83.83C73.33,86.86,72.35,87.39,71.53,87.31Z"/><path class="cls-1" d="M70.32,95.52c-0.15.9-.9,1.66-1.43,1.43a0.94,0.94,0,0,1-.75-1.13,1.52,1.52,0,0,1,1.66-.75C70.09,95.07,70.39,95.22,70.32,95.52Z"/><path class="cls-1" d="M62.41,91.76a0.64,0.64,0,0,1,.53.53,3.37,3.37,0,0,1-1.66,1.58,0.75,0.75,0,0,1-.6-0.83A1.88,1.88,0,0,1,62.41,91.76Z"/><path class="cls-1" d="M71.07,89.72a0.73,0.73,0,0,1,.83.53,0.88,0.88,0,0,1-1.05.9,1,1,0,0,1-1.05-.9C69.87,89.65,70.39,89.72,71.07,89.72Z"/><path class="cls-1" d="M81.25,97.26c-0.83-.08-0.9-0.68-0.83-1.43a0.45,0.45,0,0,1,.45-0.53,2.18,2.18,0,0,1,1.21,1.51A0.71,0.71,0,0,1,81.25,97.26Z"/><path class="cls-1" d="M90,96c-0.08.45-.15,0.9-0.75,0.83a0.4,0.4,0,0,1-.38-0.53,0.79,0.79,0,0,1,.83-0.83C89.83,95.37,90,95.68,90,96Z"/><path class="cls-1" d="M79.51,91.38a1,1,0,0,1-1.21.6c-0.3-.08-0.45-0.3-0.3-0.53a1,1,0,0,1,1.13-.53C79.44,90.85,79.51,91.08,79.51,91.38Z"/><path class="cls-1" d="M71.6,76.16c0.68-1,1.43-.45,2.19-0.15a0.83,0.83,0,0,1,.3.68A1.51,1.51,0,0,1,72.5,78a1.62,1.62,0,0,1-1.73-1.43c0.08-.6.6-0.38,0.83-0.45,0.53,0.75.53,0.75,1.36,0.53A1.5,1.5,0,0,0,71.6,76.16Z"/><path class="cls-1" d="M72.88,67.72a1,1,0,0,1,1.05,1.05,0.81,0.81,0,0,1-.9.83,1,1,0,0,1-1-1A0.78,0.78,0,0,1,72.88,67.72Z"/></svg>