<svg id="Layer_1" data-name="Layer 1" xmlns="http://www.w3.org/2000/svg" viewBox="0 0 215 132.24"><defs><style>.cls-1{fill:#fff;}</style></defs><title>gun-tracing</title><rect x="-0.17" width="215.34" height="132.24"/><path class="cls-1" d="M176.64,122l-8.41-4.49c2.92-7.46,13.14-7.85,7.15-13l0.16-.67c2.51-.2,4.33-0.76,4.54-3.32l0.81-.21,0.78,0.92,2,0.22,1.14-.35,0.3,1.11,7.14,3.77,0,0.33,14.86,7.89a1.08,1.08,0,0,1,1.49-.42,1.11,1.11,0,0,1,.5,1.47l1.14,0.6-1.33,2.53-1.19-.63-1.36,2.58-2.23-1.18-0.44.59-7.94-4.18c-2.12-.42-3.46.9-4.38,3-2.31.18-4.77-1.06-7.36-3C182.21,113.87,179.29,118.8,176.64,122Zm11.86-4.59c1.3,0.43,2.65.26,3.23-.83h0a2.38,2.38,0,0,0-1.14-3.14l-1.64-.86a4,4,0,0,0-.37,4.43c-1-.52-2.1-2.5-0.72-5l-0.5-.26a2.38,2.38,0,0,0-3.23.83h0c-0.58,1.09.33,2.39,1.14,3.14A8.86,8.86,0,0,0,188.5,117.44Z"/><path class="cls-1" d="M58.7,103.48a4.19,4.19,0,0,0-2.2.5c-6,3-12.4,5-18.3,8.3a29.13,29.13,0,0,1-8,3.2c-1.9.5-2.2,0.2-2.4-1.7a139.79,139.79,0,0,1-.4-18.3,5.83,5.83,0,0,0-.2-2.3,0.72,0.72,0,0,0-.8.1c-4.4,3.4-8.9,6.9-13.3,10.4-2.8,2.2-5.9,3.9-8.4,6.3-3.9,3.6-8.2,6.8-11.4,11.1-0.8,1.1-2.2,1.3-3.6.3a22.31,22.31,0,0,0-3.3-2c-0.4-.2-1.2-0.5-0.7-1.3a1.29,1.29,0,0,1,1.6-.7c1.1,0.6,2.5.9,3.4,1.8a1.13,1.13,0,0,0,1.8.1,2.18,2.18,0,0,0,.5-0.4c2.2-2.5,4.8-4.5,7.2-6.8a75.4,75.4,0,0,1,9.4-7.5c3-2,5.7-4.4,8.5-6.7,1.4-1.1,2.8-2.2,4.3-3.2a23,23,0,0,0,3.8-3.2c0.8-.8.9-1.3,0.3-2.2a82.89,82.89,0,0,0-5.5-7.7,22.57,22.57,0,0,1-2.3-2.9A11.33,11.33,0,0,0,16.5,76a16.5,16.5,0,0,1-3.1-3.3,51.81,51.81,0,0,1-4.7-5.8,10.23,10.23,0,0,1-1.4-2.2,0.85,0.85,0,0,0-.5-0.3,0.56,0.56,0,0,0-.6.5,19.22,19.22,0,0,1,0,2.4c-0.4,3.5-.4,7-1.2,10.5-0.2,1-.1,2-0.2,3-0.2,1.6-1.2,2.2-2.6,1.4-3.2-1.9-6.8-2.1-10.4-2.3-1.4-.1-2.9-0.2-4.3-0.4a5.64,5.64,0,0,1-1.2-.4,0.63,0.63,0,0,1-.5-0.6,0.68,0.68,0,0,1,.7-0.7c0.9,0,1.9.3,2.8,0.3a56,56,0,0,1,12.2,1.7c1.7,0.4,1.9.2,2.2-1.5,0.6-3.7.6-7.4,1.2-11.1,0.3-1.5-.1-3.1.2-4.7a3.07,3.07,0,0,0-1.2-2.2c-0.9-.9-1.8-1.8-2.7-2.8-1.7-1.9-2.1-2.1-4.7-1.2a10.92,10.92,0,0,1-5.9.8A23.09,23.09,0,0,1-17.1,54c-4.3-2.7-5-10-3.6-14a17.17,17.17,0,0,1,5.2-8c2.7-2.2,5.7-3.9,9.4-3.5a4.48,4.48,0,0,0,1.1-.1c3.5-.8,6,1.1,8.5,3.1,4.7,3.7,4.4,11.7,2.7,15.9a19.27,19.27,0,0,1-3.8,5.9c-0.9.9-.9,1.6,0,2.4,1.2,1,1.7,2.4,2.9,3.4a2.46,2.46,0,0,0,2.1.8c1.1-.1,2.3,0,3.4-0.2,4.8-1.2,9.7-2,14.4-3.6,1.6-.6,3.2-1.3,4.8-2a10.41,10.41,0,0,1,1.6-.6c1.2-.4,1.4-0.2,1.2,1.1-0.5,3.1-1.1,6.2-1.6,9.3a51.8,51.8,0,0,0-1.1,7.9,10.1,10.1,0,0,1-.3,1.7,1,1,0,0,1-.9.8c-0.6,0-.5-0.6-0.5-1a19,19,0,0,1,.4-4.1c0.7-4,1.4-8.1,2-12.1,0.2-1.4,0-1.6-1.2-1.1a94.17,94.17,0,0,1-20.2,5.4c-1,.2-1.4.7-0.8,1.4,1.5,2.1,2.6,4.4,4.3,6.4,2.6,3,5.5,5.7,7.7,8.9,1.1,1.5,2.3,2.9,3.5,4.3a31.77,31.77,0,0,1,4.8,7.3,5.48,5.48,0,0,1,.4,2.5c-0.1,4,.2,8-0.3,12,0,0.4.1,0.9,0.1,1.3,0.1,2.3.6,4.6,0.6,6.9,0,1.2.4,1.4,1.5,1a53.18,53.18,0,0,0,6.6-2.6c4.8-2.7,10.1-4.6,15.1-6.8a66.45,66.45,0,0,1,6.1-2.7c0.7-.2,1.3-0.6,2,0a1.52,1.52,0,0,1,.2,1.8,11.07,11.07,0,0,0-.4,3.6,4.05,4.05,0,0,1,0,1.1,1.17,1.17,0,0,1-1.1.9c-0.7,0-.7-0.6-0.8-1.1C58.5,106.38,59.2,105,58.7,103.48Z"/></svg>