<?xml version="1.0" encoding="utf-8"?>
<!-- Generator: Adobe Illustrator 19.2.1, SVG Export Plug-In . SVG Version: 6.00 Build 0)  -->
<svg version="1.1" id="Layer_1" xmlns="http://www.w3.org/2000/svg" xmlns:xlink="http://www.w3.org/1999/xlink" x="0px" y="0px"
	 viewBox="0 0 78.7 63.1" style="enable-background:new 0 0 78.7 63.1;" xml:space="preserve">
<style type="text/css">
	.st0{fill:#FFFFFF;}
</style>
<g>
	<path class="st0" d="M37.6,17.9c2.2-0.8,4.5-0.6,6.6,0.4c0.9,0.3,1.6,1,2,1.8c1.1,2.4,1.6,4.9,0.1,7.3c-0.8,1.3-1.9,2.4-3.2,3.2
		c-1.3,0.8-2.4,1.8-3.3,3.1c-0.7,0.6-0.7,1.7-0.2,2.4c0.4,0.6,1,1.3,0.1,2c-0.6,0.5-1.6,0.1-2.2-0.8c-1.2-1.4-1.2-3.4-0.1-4.8
		c1.1-1.7,2.7-2.8,4.2-4c1-0.8,1.9-1.7,2.6-2.7c0.9-1.5,0.5-4.7-0.9-5.7c-0.2-0.2-0.5-0.3-0.7-0.4c-3.2-0.6-6.5,0.7-8.3,3.5
		c-0.5,0.9-0.9,1.8,0,2.7c0.3,0.2,0.4,0.6,0.2,0.9c0,0.1-0.1,0.1-0.2,0.2c-0.3,0.3-0.8,0.4-1.1,0.2c-1.1-0.6-1.7-1.6-1.8-2.8
		c0-1.1,0.3-2.1,1-2.9C33.9,19.7,35.3,18.1,37.6,17.9z"/>
	<path class="st0" d="M39.3,45c-1.1,0.3-2.2-0.4-2.6-1.5c-0.1-1.3,0.7-2.5,2-2.7c1.1-0.4,2.3,0.2,2.6,1.3c0,0.1,0,0.1,0.1,0.2
		C41.5,43.6,40.6,44.7,39.3,45z"/>
</g>
</svg>
