<?xml version="1.0" encoding="utf-8"?>
<!-- Generator: Adobe Illustrator 19.2.1, SVG Export Plug-In . SVG Version: 6.00 Build 0)  -->
<svg version="1.1" id="Layer_1" xmlns="http://www.w3.org/2000/svg" xmlns:xlink="http://www.w3.org/1999/xlink" x="0px" y="0px"
	 viewBox="0 0 100 100" style="enable-background:new 0 0 100 100;" xml:space="preserve">
<path d="M46.5,66.9c0.9-4.1,1.1-8.3,1.4-12.3c0.8-9.3,0.6-18.5,0.3-27.8c-0.2-4.8,1.2-9.5,0.5-14.3c-0.3-2.6-0.5-5.1-0.1-7.7
	c0.2-1.3,0.8-2.1,1.9-2.6c2.2-1,3.5-0.3,3.6,2.2c0.2,3.1,0.4,6.2,0.4,9.3c-0.2,10.3,1,20.6,0.3,30.9c-0.4,6.1-0.6,12.1-0.8,18.2
	c0,1.2-0.3,2.5,0.3,3.8c0.4-0.1,0.7-0.2,1-0.3c1.2-0.5,2.3-1.5,3.5-0.3c1.3,1.2,1.8,2.8,1.1,4.6c-1.5,3.6-1.7,7.5-3.3,11.1
	c-1.3,3-1.5,6.5-1.7,9.9c-0.1,1.3-0.1,2.6-0.6,3.8c-0.5,1.4-1.6,2-3,2c-1.3,0.1-2.2-0.5-2.7-1.8c-0.2-0.6-0.7-1.2-0.6-1.8
	c0.4-3.2-0.9-6.1-1.1-9.2c-0.4-4.3-1.8-8.3-4.8-11.6c-0.4-0.5-0.9-1-1.2-1.5c-1.4-2.5-0.2-4.8,2.7-4.9
	C44.6,66.5,45.5,66.7,46.5,66.9z"/>
</svg>
