<svg id="Layer_1" data-name="Layer 1" xmlns="http://www.w3.org/2000/svg" viewBox="0 0 100 75.12"><title>hands</title><path d="M96.31,5.89a7.59,7.59,0,0,0-12.52,5.78V26.76a7,7,0,0,0-1.62-.35A7.51,7.51,0,0,0,76,28.57L57.49,47.07a13.67,13.67,0,0,0-4,9.74V68.5a2.5,2.5,0,0,0,5,0V56.82A8.75,8.75,0,0,1,61,50.59l18.5-18.51a2.59,2.59,0,0,1,3.66,3.66L72.45,46.48A2.5,2.5,0,0,0,76,50L86.7,39.27a7.55,7.55,0,0,0,2.22-5.74v-.19l-.16-21.66A2.62,2.62,0,0,1,94,11.29a2.34,2.34,0,0,1,0,.38V39.73a10.61,10.61,0,0,1-3.12,7.53L76,62.16a2.47,2.47,0,0,0-.73,1.76V68.5a2.5,2.5,0,0,0,5,0V65L94.41,50.78a15.51,15.51,0,0,0,4.58-11V11.67A7.57,7.57,0,0,0,96.31,5.89Z"/><path d="M19.78,65V68.5a2.5,2.5,0,0,0,5,0V63.92A2.49,2.49,0,0,0,24,62.16L9.13,47.26A10.61,10.61,0,0,1,6,39.73V11.67A2.62,2.62,0,0,1,8.63,9.05a2.43,2.43,0,0,1,.38,0,2.6,2.6,0,0,1,2.2,2.59l-.13,21.68h0a7.55,7.55,0,0,0,2.21,5.9L24,50a2.49,2.49,0,1,0,3.62-3.42l-.1-.1L16.84,35.75a2.59,2.59,0,0,1,3.66-3.66L39,50.59a8.73,8.73,0,0,1,2.58,6.22V68.5a2.5,2.5,0,0,0,5,0V56.82a13.67,13.67,0,0,0-4-9.74L24,28.57a7.51,7.51,0,0,0-6.16-2.16,7.67,7.67,0,0,0-1.63.36V11.67A7.61,7.61,0,1,0,1,11.67V39.73a15.51,15.51,0,0,0,4.58,11Z"/></svg>